<svg width="30" height="33" viewBox="0 0 30 33" fill="none" xmlns="http://www.w3.org/2000/svg">
<path d="M27 15.165V6C27 5.20435 26.6839 4.44129 26.1213 3.87868C25.5587 3.31607 24.7956 3 24 3H17.73C17.1 1.26 15.45 0 13.5 0C11.55 0 9.9 1.26 9.27 3H3C1.35 3 0 4.35 0 6V27C0 27.7956 0.31607 28.5587 0.87868 29.1213C1.44129 29.6839 2.20435 30 3 30H12.165C14.055 31.86 16.635 33 19.5 33C25.305 33 30 28.305 30 22.5C30 19.635 28.86 17.055 27 15.165ZM13.5 3C14.325 3 15 3.675 15 4.5C15 5.325 14.325 6 13.5 6C12.675 6 12 5.325 12 4.5C12 3.675 12.675 3 13.5 3ZM4.5 9H22.5V12H4.5V9ZM9.12 24H4.5V21H9.12C9.045 21.495 9 21.99 9 22.5C9 23.01 9.045 23.505 9.12 24ZM4.5 18V15H12.165C11.25 15.855 10.56 16.875 10.02 18H4.5ZM19.5 30C15.36 30 12 26.64 12 22.5C12 18.36 15.36 15 19.5 15C23.64 15 27 18.36 27 22.5C27 26.64 23.64 30 19.5 30ZM20.25 22.875L24.54 25.41L23.415 27.24L18 24V16.5H20.25V22.875Z" fill="#1C9EB6"/>
</svg>
